<?xml version="1.0" encoding="utf-8"?>
<!-- Generator: Adobe Illustrator 16.0.0, SVG Export Plug-In . SVG Version: 6.00 Build 0)  -->
<!DOCTYPE svg PUBLIC "-//W3C//DTD SVG 1.1//EN" "http://www.w3.org/Graphics/SVG/1.1/DTD/svg11.dtd">
<svg version="1.1" id="Layer_1" xmlns="http://www.w3.org/2000/svg" xmlns:xlink="http://www.w3.org/1999/xlink" x="0px" y="0px"
	 width="15px" height="25.613px" viewBox="0 0 15 25.613" enable-background="new 0 0 15 25.613" xml:space="preserve">
<path fill="#678244" d="M2.343,5.904h10.732c0,0-0.429,15.656-0.429,17.194c0,1.532-1.013,1.61-1.013,1.61l-7.93-0.001
	c0,0-0.895,0.078-0.895-1.454C2.81,21.716,2.343,5.904,2.343,5.904z"/>
<rect x="1.333" y="5.251" fill="#678244" width="12.535" height="1.31"/>
<polygon fill="#678244" points="1.771,4.235 2.613,3.012 12.592,3.012 13.432,4.235 "/>
<path fill="#678244" d="M5.178,2.198c0-0.941,0.195-1.295,0.872-1.295c0.678,0,1.55,0,1.55,0v0.649H5.921L5.889,2.198H5.178z"/>
<path fill="#678244" d="M10.023,2.198c0-0.941-0.192-1.295-0.871-1.295c-0.68,0-1.551,0-1.551,0v0.649h1.68l0.031,0.646H10.023z"/>
</svg>
