<?xml version="1.0" encoding="utf-8"?>
<!-- Generator: Adobe Illustrator 16.0.0, SVG Export Plug-In . SVG Version: 6.00 Build 0)  -->
<!DOCTYPE svg PUBLIC "-//W3C//DTD SVG 1.1//EN" "http://www.w3.org/Graphics/SVG/1.1/DTD/svg11.dtd">
<svg version="1.1" id="Layer_1" xmlns="http://www.w3.org/2000/svg" xmlns:xlink="http://www.w3.org/1999/xlink" x="0px" y="0px"
	 width="15px" height="25.613px" viewBox="0 0 15 25.613" enable-background="new 0 0 15 25.613" xml:space="preserve">
<g>
	<path fill="#FFC41D" d="M4.309,7.732C1.413,11.41,0.007,17.284,0.007,19.44c0,2.159-0.249,4.919,2.151,5.634
		c2.4,0.723,7.777,0.723,9.849,0c2.066-0.715,2.896-1.434,3.062-3.597c0.166-2.156-1.6-10.666-4.496-13.783
		c0,0-2.006,0.084-3.032,0.038C5.749,7.648,4.309,7.732,4.309,7.732z"/>
	<path fill="#FFC41D" d="M10.322,5.651H4.724c0,0-0.524,0.041-0.524,0.8s0.47,0.681,0.47,0.681l5.653,0.001
		c0,0,0.47-0.077,0.47-0.74C10.792,5.734,10.322,5.651,10.322,5.651z"/>
	<path fill="#FFC41D" d="M4.42,4.775c0,0-2.124-2.917-1.379-4.196c0.744-1.277,3.586,1.238,4.33,1.278
		c0.745,0.039,3.779-3.078,4.523-1.319s-1.352,4.236-1.352,4.236L4.42,4.775L4.42,4.775z"/>
</g>
</svg>
